{"title":"Gippi 2013 SCamRip MPEG.VOB (DDD) - Hindi","uid":8459998,"size":570486784,"categoryP":"video","categoryS":"movies","magnet":"?xt=urn:btih:6f0fe3886a2b8146e9bc733ee8a425751a29c646&amp;dn=Gippi+2013+SCamRip+MPEG.VOB+%28DDD%29+-+Hindi&amp;tr=udp%3A%2F%2Ftracker.openbittorrent.com%3A80&amp;tr=udp%3A%2F%2Fopen.demonii.com%3A1337&amp;tr=udp%3A%2F%2Ftracker.coppersurfer.tk%3A6969&amp;tr=udp%3A%2F%2Fexodus.desync.com%3A6969","seeders":0,"leechers":0,"uploader":"SJonam","files":1,"time":1368210361,"description":" &lt;a href=&quot;http://desibbrg.org/images/85214856223899147872.gif&quot; rel=&quot;nofollow&quot; target=&quot;_NEW&quot;&gt;http://desibbrg.org/images/85214856223899147872.gif&lt;/a&gt;\n &lt;a href=&quot;\nhttp://desibbrg.org/images/87012995592000626397.jpg&quot; rel=&quot;nofollow&quot; target=&quot;_NEW&quot;&gt;\nhttp://desibbrg.org/images/87012995592000626397.jpg&lt;/a&gt;\n &lt;a href=&quot;\nhttp://desibbrg.org/images/08238782011362135749.jpg&quot; rel=&quot;nofollow&quot; target=&quot;_NEW&quot;&gt;\nhttp://desibbrg.org/images/08238782011362135749.jpg&lt;/a&gt;\n &lt;a href=&quot;\nhttp://i1306.photobucket.com/albums/s570/zyx55e/oie_11162011MOJeDGQI_zpsc25b2b81.gif&quot; rel=&quot;nofollow&quot; target=&quot;_NEW&quot;&gt;\nhttp://i1306.photobucket.com/albums/s570/zyx55e/oie_11162011MOJeDGQI_zpsc25b2b81.gif&lt;/a&gt;\nVideo\nID : 224 (0xE0)\nFormat : MPEG Video\nFormat version : Version 2\nFormat profile : Main@Main\nFormat settings, BVOP : Yes\nFormat settings, Matrix : Default\nFormat settings, GOP : M=3, N=13\nDuration : 1h 28mn\nBit rate mode : Variable\nBit rate : 710 Kbps\nMaximum bit rate : 9 672 Kbps\nWidth : 352 pixels\nHeight : 288 pixels\nDisplay aspect ratio : 4:3\nFrame rate : 25.000 fps\nStandard : PAL\nColor space : YUV\nChroma subsampling : 4:2:0\nBit depth : 8 bits\nScan type : Progressive\nCompression mode : Lossy\nBits/(Pixel*Frame) : 0.280\nStream size : 452 MiB (83%)\n\nAudio\nID : 192 (0xC0)\nFormat : MPEG Audio\nFormat version : Version 1\nFormat profile : Layer 2\nDuration : 1h 28mn\nBit rate mode : Constant\nBit rate : 128 Kbps\nChannel(s) : 2 channels\nSampling rate : 48.0 KHz\nCompression mode : Lossy\nStream size : 81.4 MiB (15%)\n\nRipper : Pakistani Baccha\n\nSeeding 24x7... Extreme Seeding...\n\n\nEnjoy! &lt;a href=&quot;\nhttp://i1306.photobucket.com/albums/s570/zyx55e/oie_1117625zVIGKvnK_zpsc8b6e055.gif&quot; rel=&quot;nofollow&quot; target=&quot;_NEW&quot;&gt;\nhttp://i1306.photobucket.com/albums/s570/zyx55e/oie_1117625zVIGKvnK_zpsc8b6e055.gif&lt;/a&gt;\n","torrent":{"xt":"urn:btih:6f0fe3886a2b8146e9bc733ee8a425751a29c646","amp;dn":"Gippi+2013+SCamRip+MPEG.VOB+%28DDD%29+-+Hindi","amp;tr":["udp%3A%2F%2Ftracker.openbittorrent.com%3A80","udp%3A%2F%2Fopen.demonii.com%3A1337","udp%3A%2F%2Ftracker.coppersurfer.tk%3A6969","udp%3A%2F%2Fexodus.desync.com%3A6969"],"infoHash":"6f0fe3886a2b8146e9bc733ee8a425751a29c646","infoHashBuffer":{"type":"Buffer","data":[111,15,227,136,106,43,129,70,233,188,115,62,232,164,37,117,26,41,198,70]},"announce":[],"urlList":[]}}